<mxfile host="app.diagrams.net" modified="2024-01-26T03:04:09.467Z" agent="Mozilla/5.0 (Windows NT 10.0; Win64; x64) AppleWebKit/537.36 (KHTML, like Gecko) Chrome/120.0.0.0 Safari/537.36" version="23.0.1" etag="c6SoNuZ9gVyYtsHv7XI3" type="github">
  <diagram name="페이지-1" id="BiRS7UhmYVIBMqFr-Bp8">
    <mxGraphModel>
      <root>
        <mxCell id="0" />
        <mxCell id="1" parent="0" />
      </root>
    </mxGraphModel>
  </diagram>
</mxfile>
